<svg xmlns="http://www.w3.org/2000/svg" xmlns:xlink="http://www.w3.org/1999/xlink" width="500" zoomAndPan="magnify" viewBox="0 0 375 374.999991" height="500" preserveAspectRatio="xMidYMid meet" version="1.0"><defs><clipPath id="68c9385418"><path d="M 19.550781 49.363281 L 355.550781 49.363281 L 355.550781 325.363281 L 19.550781 325.363281 Z M 19.550781 49.363281 " clip-rule="nonzero"/></clipPath><clipPath id="fceb65784b"><path d="M 110.148438 169.953125 L 111.625 169.953125 L 111.625 171.175781 L 110.148438 171.175781 Z M 110.148438 169.953125 " clip-rule="nonzero"/></clipPath><clipPath id="49f11ef3f9"><path d="M 111.601562 170.398438 C 110.925781 171.375 110.324219 171.226562 110.25 171 C 110.101562 170.773438 110.175781 170.175781 110.398438 170.023438 C 110.625 169.875 111.375 170.101562 111.375 170.101562 " clip-rule="nonzero"/></clipPath><clipPath id="7f59d16cc1"><path d="M 0.148438 0.953125 L 1.601562 0.953125 L 1.601562 2.175781 L 0.148438 2.175781 Z M 0.148438 0.953125 " clip-rule="nonzero"/></clipPath><clipPath id="cc6e4485c5"><path d="M 1.601562 1.398438 C 0.925781 2.375 0.324219 2.226562 0.25 2 C 0.101562 1.773438 0.175781 1.175781 0.398438 1.023438 C 0.625 0.875 1.375 1.101562 1.375 1.101562 " clip-rule="nonzero"/></clipPath><clipPath id="a19bdaf30d"><rect x="0" width="2" y="0" height="3"/></clipPath><clipPath id="0a7a99df8c"><path d="M 108 165.636719 L 111.675781 165.636719 L 111.675781 171.261719 L 108 171.261719 Z M 108 165.636719 " clip-rule="nonzero"/></clipPath><clipPath id="fd4d6e42bf"><path d="M 110.101562 170.625 C 108.074219 166.125 108.375 165.75 108.675781 165.675781 C 108.898438 165.601562 109.425781 165.898438 109.425781 166.125 C 109.5 166.351562 109.050781 167.101562 108.824219 167.175781 C 108.601562 167.175781 108 166.648438 108 166.425781 C 108.074219 166.199219 108.824219 165.75 109.273438 165.824219 C 110.023438 166.050781 111.375 168.375 111.601562 169.351562 C 111.75 170.023438 111.601562 171.074219 111.300781 171.226562 C 111 171.375 110.101562 170.625 110.101562 170.625 " clip-rule="nonzero"/></clipPath><clipPath id="28907126a3"><path d="M 0 0.636719 L 3.675781 0.636719 L 3.675781 6.261719 L 0 6.261719 Z M 0 0.636719 " clip-rule="nonzero"/></clipPath><clipPath id="9ecd893d31"><path d="M 2.101562 5.625 C 0.0742188 1.125 0.375 0.75 0.675781 0.675781 C 0.898438 0.601562 1.425781 0.898438 1.425781 1.125 C 1.5 1.351562 1.050781 2.101562 0.824219 2.175781 C 0.601562 2.175781 0 1.648438 0 1.425781 C 0.0742188 1.199219 0.824219 0.75 1.273438 0.824219 C 2.023438 1.050781 3.375 3.375 3.601562 4.351562 C 3.75 5.023438 3.601562 6.074219 3.300781 6.226562 C 3 6.375 2.101562 5.625 2.101562 5.625 " clip-rule="nonzero"/></clipPath><clipPath id="95782177d2"><rect x="0" width="4" y="0" height="7"/></clipPath></defs><path fill="#010101" d="M 158.492188 202.3125 L 158.492188 208.21875 L 171.707031 208.21875 L 171.707031 221.707031 L 164.117188 221.707031 L 164.117188 226.082031 L 171.707031 226.082031 L 171.707031 233.082031 L 176.089844 233.082031 L 176.089844 226.082031 L 210.84375 226.082031 L 210.84375 241.90625 L 215.734375 241.90625 L 215.734375 226.082031 L 222.234375 226.082031 L 222.234375 221.707031 L 215.734375 221.707031 L 215.734375 208.21875 L 216.609375 208.21875 L 216.609375 202.3125 L 215.734375 202.3125 L 215.734375 188.53125 L 222.234375 188.53125 L 222.234375 182.625 L 215.734375 182.625 L 215.734375 177.226562 L 210.84375 177.226562 L 210.84375 182.625 L 176.089844 182.625 L 176.089844 174.96875 L 171.707031 174.96875 L 171.707031 182.625 L 164.117188 182.625 L 164.117188 188.53125 L 171.707031 188.53125 L 171.707031 202.3125 Z M 210.917969 221.707031 L 176.164062 221.707031 L 176.164062 208.21875 L 210.917969 208.21875 Z M 176.164062 188.53125 L 210.917969 188.53125 L 210.917969 202.3125 L 176.164062 202.3125 Z M 176.164062 188.53125 " fill-opacity="1" fill-rule="evenodd"/><g clip-path="url(#68c9385418)"><path fill="#010101" d="M 355.550781 270.5625 L 333.722656 270.5625 L 333.722656 267.863281 L 331.019531 267.863281 L 331.019531 49.476562 L 329.269531 49.476562 L 329.269531 238.914062 L 277.285156 187.4375 L 276.625 133.476562 L 270.566406 133.550781 L 271.152344 181.382812 L 261.660156 171.976562 L 261.730469 104.457031 L 255.671875 104.457031 L 255.597656 165.925781 L 205.367188 116.195312 L 217.558594 104.164062 L 295.171875 104.164062 L 295.171875 102.414062 L 219.3125 102.414062 L 259.613281 62.601562 L 258.375 61.363281 L 216.828125 102.414062 L 196.023438 102.414062 L 213.179688 85.496094 L 211.9375 84.257812 L 193.539062 102.414062 L 75.261719 102.414062 L 75.261719 99.789062 L 72.632812 99.789062 L 72.632812 76.746094 L 70.878906 76.746094 L 70.878906 99.789062 L 68.179688 99.789062 L 68.179688 102.414062 L 46.273438 102.414062 L 46.273438 104.164062 L 68.105469 104.164062 L 68.105469 106.863281 L 70.804688 106.863281 L 70.804688 223.601562 L 19.550781 274.207031 L 20.792969 275.449219 L 70.734375 226.15625 L 70.734375 246.863281 L 59.34375 258.09375 L 60.585938 259.332031 L 70.734375 249.34375 L 70.734375 325.25 L 72.484375 325.25 L 72.484375 247.59375 L 73.289062 246.789062 L 76.429688 250 L 190.910156 137.707031 L 255.453125 199.101562 L 255.378906 270.488281 L 106.65625 270.488281 L 106.65625 272.3125 L 326.566406 272.3125 L 326.566406 274.9375 L 329.195312 274.9375 L 329.195312 298.050781 L 330.949219 298.050781 L 330.949219 274.9375 L 333.648438 274.9375 L 333.648438 272.3125 L 355.480469 272.3125 L 355.480469 270.5625 Z M 271.222656 189.988281 L 271.441406 205.957031 L 261.585938 196.625 L 261.585938 180.507812 Z M 215.003906 104.164062 L 204.125 114.957031 L 193.757812 104.675781 L 194.269531 104.164062 Z M 69.273438 101.027344 L 73.945312 101.027344 L 73.945312 105.695312 L 69.273438 105.695312 Z M 72.484375 106.933594 L 75.113281 106.933594 L 75.113281 104.164062 L 191.566406 104.164062 L 72.484375 221.851562 Z M 72.484375 224.40625 L 83.875 213.175781 L 88.109375 217.40625 L 193.394531 112.914062 L 199.746094 119.257812 L 72.484375 245.113281 Z M 191.566406 129.902344 L 201.058594 120.496094 L 255.527344 174.457031 L 255.527344 190.789062 Z M 261.585938 204.9375 L 271.515625 214.414062 L 272.171875 270.5625 L 261.441406 270.5625 Z M 278.234375 270.5625 L 277.648438 220.25 L 283.5625 225.863281 L 287.722656 221.488281 L 277.574219 211.789062 L 277.355469 196.113281 L 326.421875 244.75 L 329.195312 241.90625 L 329.195312 267.863281 L 326.566406 267.863281 L 326.566406 270.5625 Z M 332.480469 273.699219 L 327.808594 273.699219 L 327.808594 269.03125 L 332.480469 269.03125 Z M 332.480469 273.699219 " fill-opacity="1" fill-rule="evenodd"/></g><g clip-path="url(#fceb65784b)"><g clip-path="url(#49f11ef3f9)"><g transform="matrix(1, 0, 0, 1, 110, 169)"><g clip-path="url(#a19bdaf30d)"><g clip-path="url(#7f59d16cc1)"><g clip-path="url(#cc6e4485c5)"><rect x="-192.5" width="540" fill="#ffffff" height="539.999987" y="-251.499998" fill-opacity="1"/></g></g></g></g></g></g><g clip-path="url(#0a7a99df8c)"><g clip-path="url(#fd4d6e42bf)"><g transform="matrix(1, 0, 0, 1, 108, 165)"><g clip-path="url(#95782177d2)"><g clip-path="url(#28907126a3)"><g clip-path="url(#9ecd893d31)"><rect x="-190.5" width="540" fill="#ffffff" height="539.999987" y="-247.499998" fill-opacity="1"/></g></g></g></g></g></g></svg>