<svg xmlns="http://www.w3.org/2000/svg" xmlns:xlink="http://www.w3.org/1999/xlink" width="500" zoomAndPan="magnify" viewBox="0 0 375 374.999991" height="500" preserveAspectRatio="xMidYMid meet" version="1.0"><defs><g/><clipPath id="d0731f409f"><path d="M 1.054688 0.457031 L 343.972656 0.457031 L 343.972656 282.234375 L 1.054688 282.234375 Z M 1.054688 0.457031 " clip-rule="nonzero"/></clipPath><clipPath id="a9e819343b"><rect x="0" width="190" y="0" height="71"/></clipPath><clipPath id="3259f62af8"><path d="M 53 316 L 301 316 L 301 348.359375 L 53 348.359375 Z M 53 316 " clip-rule="nonzero"/></clipPath><clipPath id="89847e8773"><rect x="0" width="248" y="0" height="33"/></clipPath><clipPath id="5f6ddb8540"><rect x="0" width="345" y="0" height="349"/></clipPath></defs><g transform="matrix(1, 0, 0, 1, 15, 15)"><g clip-path="url(#5f6ddb8540)"><path fill="#010101" d="M 142.855469 156.605469 L 142.855469 162.636719 L 156.34375 162.636719 L 156.34375 176.410156 L 148.59375 176.410156 L 148.59375 180.875 L 156.34375 180.875 L 156.34375 188.023438 L 160.816406 188.023438 L 160.816406 180.875 L 196.285156 180.875 L 196.285156 197.03125 L 201.277344 197.03125 L 201.277344 180.875 L 207.910156 180.875 L 207.910156 176.410156 L 201.277344 176.410156 L 201.277344 162.636719 L 202.171875 162.636719 L 202.171875 156.605469 L 201.277344 156.605469 L 201.277344 142.539062 L 207.910156 142.539062 L 207.910156 136.507812 L 201.277344 136.507812 L 201.277344 131 L 196.285156 131 L 196.285156 136.507812 L 160.816406 136.507812 L 160.816406 128.691406 L 156.34375 128.691406 L 156.34375 136.507812 L 148.59375 136.507812 L 148.59375 142.539062 L 156.34375 142.539062 L 156.34375 156.605469 Z M 196.359375 176.410156 L 160.890625 176.410156 L 160.890625 162.636719 L 196.359375 162.636719 Z M 160.890625 142.539062 L 196.359375 142.539062 L 196.359375 156.605469 L 160.890625 156.605469 Z M 160.890625 142.539062 " fill-opacity="1" fill-rule="evenodd"/><g clip-path="url(#d0731f409f)"><path fill="#010101" d="M 343.972656 226.285156 L 321.691406 226.285156 L 321.691406 223.53125 L 318.933594 223.53125 L 318.933594 0.574219 L 317.148438 0.574219 L 317.148438 193.976562 L 264.09375 141.421875 L 263.421875 86.332031 L 257.238281 86.40625 L 257.832031 135.242188 L 248.144531 125.640625 L 248.21875 56.703125 L 242.035156 56.703125 L 241.960938 119.460938 L 190.695312 68.691406 L 203.140625 56.40625 L 282.347656 56.40625 L 282.347656 54.621094 L 204.925781 54.621094 L 246.058594 13.976562 L 244.792969 12.710938 L 202.394531 54.621094 L 181.15625 54.621094 L 198.667969 37.351562 L 197.402344 36.085938 L 178.625 54.621094 L 57.910156 54.621094 L 57.910156 51.941406 L 55.226562 51.941406 L 55.226562 28.417969 L 53.4375 28.417969 L 53.4375 51.941406 L 50.683594 51.941406 L 50.683594 54.621094 L 28.328125 54.621094 L 28.328125 56.40625 L 50.609375 56.40625 L 50.609375 59.160156 L 53.363281 59.160156 L 53.363281 178.34375 L 1.054688 230.007812 L 2.324219 231.273438 L 53.289062 180.949219 L 53.289062 202.089844 L 41.667969 213.554688 L 42.933594 214.820312 L 53.289062 204.621094 L 53.289062 282.117188 L 55.078125 282.117188 L 55.078125 202.835938 L 55.898438 202.015625 L 59.101562 205.292969 L 175.941406 90.652344 L 241.8125 153.332031 L 241.738281 226.210938 L 89.953125 226.210938 L 89.953125 228.070312 L 314.390625 228.070312 L 314.390625 230.753906 L 317.070312 230.753906 L 317.070312 254.351562 L 318.859375 254.351562 L 318.859375 230.753906 L 321.617188 230.753906 L 321.617188 228.070312 L 343.898438 228.070312 L 343.898438 226.285156 Z M 257.90625 144.027344 L 258.132812 160.328125 L 248.070312 150.800781 L 248.070312 134.347656 Z M 200.53125 56.40625 L 189.429688 67.425781 L 178.847656 56.929688 L 179.371094 56.40625 Z M 51.800781 53.207031 L 56.570312 53.207031 L 56.570312 57.96875 L 51.800781 57.96875 Z M 55.078125 59.234375 L 57.761719 59.234375 L 57.761719 56.40625 L 176.613281 56.40625 L 55.078125 176.558594 Z M 55.078125 179.164062 L 66.703125 167.699219 L 71.023438 172.015625 L 178.476562 65.339844 L 184.957031 71.816406 L 55.078125 200.304688 Z M 176.613281 82.683594 L 186.300781 73.082031 L 241.886719 128.171875 L 241.886719 144.84375 Z M 248.070312 159.289062 L 258.207031 168.964844 L 258.875 226.285156 L 247.921875 226.285156 Z M 265.0625 226.285156 L 264.464844 174.921875 L 270.5 180.652344 L 274.746094 176.1875 L 264.390625 166.285156 L 264.167969 150.28125 L 314.242188 199.933594 L 317.070312 197.03125 L 317.070312 223.53125 L 314.390625 223.53125 L 314.390625 226.285156 Z M 320.425781 229.488281 L 315.65625 229.488281 L 315.65625 224.722656 L 320.425781 224.722656 Z M 320.425781 229.488281 " fill-opacity="1" fill-rule="evenodd"/></g><g transform="matrix(1, 0, 0, 1, 87, 260)"><g clip-path="url(#a9e819343b)"><g fill="#242424" fill-opacity="1"><g transform="translate(1.570567, 51.664862)"><g><path d="M 5.40625 0 L 5.40625 -33.484375 L 25.109375 -33.484375 L 25.109375 -30.75 L 8.328125 -30.75 L 8.328125 -18.40625 L 23.859375 -18.40625 L 23.859375 -15.734375 L 8.328125 -15.734375 L 8.328125 -2.71875 L 25.640625 -2.71875 L 25.640625 0 Z M 5.40625 0 "/></g></g></g><g fill="#242424" fill-opacity="1"><g transform="translate(50.975472, 51.664862)"><g><path d="M 5.40625 0 L 5.40625 -33.484375 L 17.796875 -33.484375 C 20.054688 -33.484375 22.015625 -33.050781 23.671875 -32.1875 C 25.328125 -31.320312 26.617188 -30.113281 27.546875 -28.5625 C 28.472656 -27.019531 28.9375 -25.179688 28.9375 -23.046875 C 28.9375 -20.273438 28.171875 -17.988281 26.640625 -16.1875 C 25.109375 -14.382812 23.019531 -13.257812 20.375 -12.8125 L 29.46875 0 L 25.96875 0 L 16.984375 -12.578125 L 8.328125 -12.578125 L 8.328125 0 Z M 8.328125 -15.359375 L 17.5 -15.359375 C 20.144531 -15.359375 22.21875 -16.039062 23.71875 -17.40625 C 25.21875 -18.78125 25.96875 -20.660156 25.96875 -23.046875 C 25.96875 -25.410156 25.21875 -27.273438 23.71875 -28.640625 C 22.21875 -30.015625 20.144531 -30.703125 17.5 -30.703125 L 8.328125 -30.703125 Z M 8.328125 -15.359375 "/></g></g></g><g fill="#242424" fill-opacity="1"><g transform="translate(103.966644, 51.664862)"><g><path d="M 5.40625 0 L 5.40625 -33.484375 L 8.328125 -33.484375 L 8.328125 0 Z M 5.40625 0 "/></g></g></g><g fill="#242424" fill-opacity="1"><g transform="translate(137.97447, 51.664862)"><g><path d="M 16.171875 0.625 C 13.617188 0.625 11.390625 0.191406 9.484375 -0.671875 C 7.585938 -1.535156 6.113281 -2.765625 5.0625 -4.359375 C 4.007812 -5.953125 3.4375 -7.816406 3.34375 -9.953125 L 6.21875 -9.953125 C 6.375 -7.492188 7.34375 -5.578125 9.125 -4.203125 C 10.914062 -2.835938 13.265625 -2.15625 16.171875 -2.15625 C 18.910156 -2.15625 21.078125 -2.71875 22.671875 -3.84375 C 24.265625 -4.976562 25.0625 -6.519531 25.0625 -8.46875 C 25.0625 -10.21875 24.328125 -11.640625 22.859375 -12.734375 C 21.390625 -13.835938 18.96875 -14.757812 15.59375 -15.5 C 11.476562 -16.457031 8.492188 -17.679688 6.640625 -19.171875 C 4.796875 -20.671875 3.875 -22.679688 3.875 -25.203125 C 3.875 -27.878906 4.894531 -30.03125 6.9375 -31.65625 C 8.976562 -33.28125 11.785156 -34.09375 15.359375 -34.09375 C 19.054688 -34.09375 21.960938 -33.203125 24.078125 -31.421875 C 26.203125 -29.640625 27.328125 -27.140625 27.453125 -23.921875 L 24.578125 -23.921875 C 24.453125 -26.273438 23.582031 -28.097656 21.96875 -29.390625 C 20.363281 -30.679688 18.160156 -31.328125 15.359375 -31.328125 C 12.640625 -31.328125 10.53125 -30.769531 9.03125 -29.65625 C 7.539062 -28.539062 6.796875 -27.054688 6.796875 -25.203125 C 6.796875 -23.546875 7.503906 -22.164062 8.921875 -21.0625 C 10.335938 -19.96875 12.800781 -19.019531 16.3125 -18.21875 C 20.550781 -17.226562 23.5625 -15.957031 25.34375 -14.40625 C 27.132812 -12.863281 28.03125 -10.898438 28.03125 -8.515625 C 28.03125 -5.703125 26.960938 -3.472656 24.828125 -1.828125 C 22.691406 -0.191406 19.804688 0.625 16.171875 0.625 Z M 16.171875 0.625 "/></g></g></g></g></g><g clip-path="url(#3259f62af8)"><g transform="matrix(1, 0, 0, 1, 53, 316)"><g clip-path="url(#89847e8773)"><g fill="#242424" fill-opacity="1"><g transform="translate(1.440573, 23.476818)"><g><path d="M 2.453125 0 L 2.453125 -15.171875 L 11.375 -15.171875 L 11.375 -13.9375 L 3.765625 -13.9375 L 3.765625 -8.34375 L 10.8125 -8.34375 L 10.8125 -7.125 L 3.765625 -7.125 L 3.765625 -1.234375 L 11.609375 -1.234375 L 11.609375 0 Z M 2.453125 0 "/></g></g></g><g fill="#242424" fill-opacity="1"><g transform="translate(22.959244, 23.476818)"><g><path d="M 2.453125 0 L 2.453125 -15.171875 L 3.6875 -15.171875 L 12.921875 -2.28125 L 12.921875 -15.171875 L 14.21875 -15.171875 L 14.21875 0 L 12.984375 0 L 3.75 -12.921875 L 3.75 0 Z M 2.453125 0 "/></g></g></g><g fill="#242424" fill-opacity="1"><g transform="translate(47.943331, 23.476818)"><g><path d="M 9.0625 0.28125 C 7.570312 0.28125 6.25 -0.0507812 5.09375 -0.71875 C 3.9375 -1.394531 3.03125 -2.320312 2.375 -3.5 C 1.71875 -4.6875 1.390625 -6.046875 1.390625 -7.578125 C 1.390625 -9.109375 1.71875 -10.46875 2.375 -11.65625 C 3.03125 -12.84375 3.929688 -13.769531 5.078125 -14.4375 C 6.234375 -15.113281 7.546875 -15.453125 9.015625 -15.453125 C 10.179688 -15.453125 11.253906 -15.238281 12.234375 -14.8125 C 13.210938 -14.394531 14.046875 -13.816406 14.734375 -13.078125 C 15.429688 -12.335938 15.9375 -11.472656 16.25 -10.484375 L 14.828125 -10.484375 C 14.347656 -11.609375 13.609375 -12.492188 12.609375 -13.140625 C 11.617188 -13.796875 10.441406 -14.125 9.078125 -14.125 C 7.816406 -14.125 6.707031 -13.847656 5.75 -13.296875 C 4.800781 -12.753906 4.0625 -11.988281 3.53125 -11 C 3 -10.019531 2.734375 -8.878906 2.734375 -7.578125 C 2.734375 -6.296875 3 -5.160156 3.53125 -4.171875 C 4.0625 -3.179688 4.804688 -2.410156 5.765625 -1.859375 C 6.734375 -1.316406 7.835938 -1.046875 9.078125 -1.046875 C 10.265625 -1.046875 11.304688 -1.285156 12.203125 -1.765625 C 13.097656 -2.253906 13.816406 -2.925781 14.359375 -3.78125 C 14.898438 -4.644531 15.210938 -5.625 15.296875 -6.71875 L 8.578125 -6.71875 L 8.578125 -7.96875 L 16.703125 -7.96875 C 16.722656 -6.363281 16.414062 -4.941406 15.78125 -3.703125 C 15.144531 -2.460938 14.25 -1.488281 13.09375 -0.78125 C 11.945312 -0.0703125 10.601562 0.28125 9.0625 0.28125 Z M 9.0625 0.28125 "/></g></g></g><g fill="#242424" fill-opacity="1"><g transform="translate(74.29192, 23.476818)"><g><path d="M 2.453125 0 L 2.453125 -15.171875 L 3.765625 -15.171875 L 3.765625 0 Z M 2.453125 0 "/></g></g></g><g fill="#242424" fill-opacity="1"><g transform="translate(88.836479, 23.476818)"><g><path d="M 2.453125 0 L 2.453125 -15.171875 L 3.6875 -15.171875 L 12.921875 -2.28125 L 12.921875 -15.171875 L 14.21875 -15.171875 L 14.21875 0 L 12.984375 0 L 3.75 -12.921875 L 3.75 0 Z M 2.453125 0 "/></g></g></g><g fill="#242424" fill-opacity="1"><g transform="translate(113.820567, 23.476818)"><g><path d="M 2.453125 0 L 2.453125 -15.171875 L 11.375 -15.171875 L 11.375 -13.9375 L 3.765625 -13.9375 L 3.765625 -8.34375 L 10.8125 -8.34375 L 10.8125 -7.125 L 3.765625 -7.125 L 3.765625 -1.234375 L 11.609375 -1.234375 L 11.609375 0 Z M 2.453125 0 "/></g></g></g><g fill="#242424" fill-opacity="1"><g transform="translate(135.339237, 23.476818)"><g><path d="M 2.453125 0 L 2.453125 -15.171875 L 11.375 -15.171875 L 11.375 -13.9375 L 3.765625 -13.9375 L 3.765625 -8.34375 L 10.8125 -8.34375 L 10.8125 -7.125 L 3.765625 -7.125 L 3.765625 -1.234375 L 11.609375 -1.234375 L 11.609375 0 Z M 2.453125 0 "/></g></g></g><g fill="#242424" fill-opacity="1"><g transform="translate(156.857908, 23.476818)"><g><path d="M 2.453125 0 L 2.453125 -15.171875 L 8.0625 -15.171875 C 9.082031 -15.171875 9.96875 -14.972656 10.71875 -14.578125 C 11.476562 -14.191406 12.066406 -13.644531 12.484375 -12.9375 C 12.898438 -12.238281 13.109375 -11.410156 13.109375 -10.453125 C 13.109375 -9.191406 12.757812 -8.148438 12.0625 -7.328125 C 11.375 -6.515625 10.429688 -6.007812 9.234375 -5.8125 L 13.34375 0 L 11.765625 0 L 7.6875 -5.703125 L 3.765625 -5.703125 L 3.765625 0 Z M 3.765625 -6.953125 L 7.9375 -6.953125 C 9.132812 -6.953125 10.070312 -7.265625 10.75 -7.890625 C 11.425781 -8.515625 11.765625 -9.367188 11.765625 -10.453125 C 11.765625 -11.515625 11.425781 -12.351562 10.75 -12.96875 C 10.070312 -13.59375 9.132812 -13.90625 7.9375 -13.90625 L 3.765625 -13.90625 Z M 3.765625 -6.953125 "/></g></g></g><g fill="#242424" fill-opacity="1"><g transform="translate(180.000992, 23.476818)"><g><path d="M 2.453125 0 L 2.453125 -15.171875 L 3.765625 -15.171875 L 3.765625 0 Z M 2.453125 0 "/></g></g></g><g fill="#242424" fill-opacity="1"><g transform="translate(194.545551, 23.476818)"><g><path d="M 2.453125 0 L 2.453125 -15.171875 L 3.6875 -15.171875 L 12.921875 -2.28125 L 12.921875 -15.171875 L 14.21875 -15.171875 L 14.21875 0 L 12.984375 0 L 3.75 -12.921875 L 3.75 0 Z M 2.453125 0 "/></g></g></g><g fill="#242424" fill-opacity="1"><g transform="translate(219.529639, 23.476818)"><g><path d="M 9.0625 0.28125 C 7.570312 0.28125 6.25 -0.0507812 5.09375 -0.71875 C 3.9375 -1.394531 3.03125 -2.320312 2.375 -3.5 C 1.71875 -4.6875 1.390625 -6.046875 1.390625 -7.578125 C 1.390625 -9.109375 1.71875 -10.46875 2.375 -11.65625 C 3.03125 -12.84375 3.929688 -13.769531 5.078125 -14.4375 C 6.234375 -15.113281 7.546875 -15.453125 9.015625 -15.453125 C 10.179688 -15.453125 11.253906 -15.238281 12.234375 -14.8125 C 13.210938 -14.394531 14.046875 -13.816406 14.734375 -13.078125 C 15.429688 -12.335938 15.9375 -11.472656 16.25 -10.484375 L 14.828125 -10.484375 C 14.347656 -11.609375 13.609375 -12.492188 12.609375 -13.140625 C 11.617188 -13.796875 10.441406 -14.125 9.078125 -14.125 C 7.816406 -14.125 6.707031 -13.847656 5.75 -13.296875 C 4.800781 -12.753906 4.0625 -11.988281 3.53125 -11 C 3 -10.019531 2.734375 -8.878906 2.734375 -7.578125 C 2.734375 -6.296875 3 -5.160156 3.53125 -4.171875 C 4.0625 -3.179688 4.804688 -2.410156 5.765625 -1.859375 C 6.734375 -1.316406 7.835938 -1.046875 9.078125 -1.046875 C 10.265625 -1.046875 11.304688 -1.285156 12.203125 -1.765625 C 13.097656 -2.253906 13.816406 -2.925781 14.359375 -3.78125 C 14.898438 -4.644531 15.210938 -5.625 15.296875 -6.71875 L 8.578125 -6.71875 L 8.578125 -7.96875 L 16.703125 -7.96875 C 16.722656 -6.363281 16.414062 -4.941406 15.78125 -3.703125 C 15.144531 -2.460938 14.25 -1.488281 13.09375 -0.78125 C 11.945312 -0.0703125 10.601562 0.28125 9.0625 0.28125 Z M 9.0625 0.28125 "/></g></g></g></g></g></g></g></g></svg>