<svg xmlns="http://www.w3.org/2000/svg" xmlns:xlink="http://www.w3.org/1999/xlink" width="200" zoomAndPan="magnify" viewBox="0 0 150 149.999998" height="200" preserveAspectRatio="xMidYMid meet" version="1.0"><path stroke-linecap="round" transform="matrix(-0.00968404, -0.749937, 0.749937, -0.00968404, 24.407994, 122.167656)" fill="none" stroke-linejoin="miter" d="M 4.49916 4.498852 L 69.650396 4.501547 " stroke="#3d3b3a" stroke-width="9" stroke-opacity="1" stroke-miterlimit="4"/><path stroke-linecap="round" transform="matrix(0.594469, -0.457282, 0.457282, 0.594469, 23.797018, 66.910311)" fill="none" stroke-linejoin="miter" d="M 4.501682 4.500774 L 80.461485 4.501883 " stroke="#3d3b3a" stroke-width="9" stroke-opacity="1" stroke-miterlimit="4"/><path stroke-linecap="round" transform="matrix(0.595341, 0.456146, -0.456146, 0.595341, 74.952419, 27.828705)" fill="none" stroke-linejoin="miter" d="M 4.497832 4.498634 L 80.970633 4.498661 " stroke="#3d3b3a" stroke-width="9" stroke-opacity="1" stroke-miterlimit="4"/><path stroke-linecap="butt" transform="matrix(0, -0.75, 0.75, 0, 39.54532, 56.982011)" fill="none" stroke-linejoin="miter" d="M 0.0020559 4.502074 L 21.705182 4.502074 " stroke="#3d3b3a" stroke-width="9" stroke-opacity="1" stroke-miterlimit="4"/><path stroke-linecap="round" transform="matrix(-0.00968404, -0.749937, 0.749937, -0.00968404, 119.551319, 122.167656)" fill="none" stroke-linejoin="miter" d="M 4.49914 4.50046 L 69.650442 4.497947 " stroke="#3d3b3a" stroke-width="9" stroke-opacity="1" stroke-miterlimit="4"/><path stroke-linecap="butt" transform="matrix(0, -0.75, 0.75, 0, 44.154963, 52.122345)" fill="none" stroke-linejoin="miter" d="M 0.00166775 4.501716 L 15.230835 4.501716 " stroke="#3d3b3a" stroke-width="9" stroke-opacity="1" stroke-miterlimit="4"/></svg>